<svg version="1.1" id="Layer_1" xmlns="http://www.w3.org/2000/svg" xmlns:xlink="http://www.w3.org/1999/xlink" x="0px" y="0px"
	 width="100%" viewBox="0 0 962 234" enable-background="new 0 0 962 234" xml:space="preserve">
<path fill="#FEFEFE" opacity="1.000000" stroke="none" 
	d="
M642.000000,235.000000 
	C428.000000,235.000000 214.500000,235.000000 1.000000,235.000000 
	C1.000000,157.000000 1.000000,79.000000 1.000000,1.000000 
	C321.666656,1.000000 642.333313,1.000000 963.000000,1.000000 
	C963.000000,79.000000 963.000000,157.000000 963.000000,235.000000 
	C856.166687,235.000000 749.333313,235.000000 642.000000,235.000000 
M26.818525,193.289078 
	C23.922424,197.955917 20.817911,202.510895 18.225956,207.340958 
	C17.082232,209.472260 16.978870,212.161850 16.403193,214.598007 
	C18.557032,215.077103 20.710447,215.972748 22.864775,215.974945 
	C94.334625,216.047836 165.804581,216.035629 237.274506,216.032913 
	C238.773422,216.032852 240.753922,216.582535 241.656509,215.839417 
	C242.956741,214.768875 244.072952,212.771790 244.141495,211.123306 
	C244.199844,209.720032 242.706390,208.226044 241.831970,206.813980 
	C206.342117,149.502426 170.845306,92.195183 135.347137,34.888783 
	C131.104355,28.039452 129.184845,28.010944 125.005478,34.756420 
	C92.394859,87.389832 59.789413,140.026443 26.818525,193.289078 
M292.204041,159.764999 
	C295.562164,152.203293 298.920258,144.641571 302.311249,137.005859 
	C333.304199,137.005859 364.109070,136.965393 394.912781,137.136810 
	C396.311859,137.144608 398.345428,138.762833 398.991394,140.142349 
	C404.057343,150.960693 408.812927,161.923965 413.794739,172.782669 
	C414.395355,174.091858 415.681519,175.881042 416.810822,176.007126 
	C420.490753,176.417999 424.245270,176.161011 428.467896,176.161011 
	C427.707611,174.186890 427.297119,172.945160 426.762878,171.759171 
	C404.602509,122.560722 382.270813,73.438065 360.457977,24.086096 
	C357.645081,17.721842 354.519104,15.330093 347.773865,15.972384 
	C344.451202,16.288771 342.997955,17.223572 341.675049,20.176405 
	C319.003357,70.781532 296.203918,121.329422 273.446808,171.896317 
	C272.881805,173.151810 272.479767,174.480667 271.854828,176.173141 
	C275.138184,176.173141 277.822327,175.926208 280.441498,176.233231 
	C284.024353,176.653259 285.855804,175.283707 287.015594,171.892548 
	C288.352356,167.983932 290.294281,164.282257 292.204041,159.764999 
M582.216248,136.206635 
	C587.730591,158.132523 601.306030,172.342346 623.534729,176.685562 
	C648.233521,181.511383 668.780701,174.119415 684.026611,151.759644 
	C684.026611,160.559021 684.026611,168.244934 684.026611,175.852478 
	C687.967468,175.852478 691.362366,175.852478 694.675781,175.852478 
	C694.675781,122.500824 694.675781,69.471062 694.675781,16.523495 
	C690.947266,16.523495 687.559082,16.523495 683.721802,16.523495 
	C683.721802,40.039307 683.721802,63.191544 683.721802,86.978386 
	C681.761353,84.175720 680.381348,81.918282 678.726868,79.884178 
	C668.300049,67.065285 654.298523,62.323166 638.280701,61.562580 
	C615.243713,60.468697 594.491333,72.707504 585.401001,93.695419 
	C579.583984,107.125580 579.526672,121.190834 582.216248,136.206635 
M447.550293,176.174301 
	C450.165588,176.174301 452.780853,176.174301 455.984924,176.174301 
	C455.984924,168.200333 455.984924,160.715378 455.984924,152.027557 
	C457.812775,154.769226 458.764923,156.489395 459.988159,157.988297 
	C477.785004,179.795609 511.438873,184.856171 534.977356,169.105331 
	C553.422546,156.762711 559.581116,138.497803 559.087280,117.299301 
	C558.117004,75.642593 523.565613,54.410992 485.912659,63.797142 
	C473.161133,66.975845 463.370514,74.536560 455.798584,85.731995 
	C455.798584,62.594891 455.798584,39.457787 455.798584,16.379320 
	C451.893127,16.379320 448.613892,16.379320 445.299896,16.379320 
	C445.110962,17.030506 444.863220,17.486040 444.863007,17.941690 
	C444.838470,69.730721 444.822998,121.519768 444.898254,173.308685 
	C444.899628,174.260010 445.993378,175.209732 447.550293,176.174301 
M776.109314,166.635605 
	C750.265625,163.856842 735.903992,145.170135 735.371155,124.936172 
	C768.960388,124.936172 802.541870,124.936172 836.480286,124.936172 
	C837.383606,112.300354 836.512512,100.329140 830.919189,89.112976 
	C819.122986,65.458069 792.186523,58.040600 768.420898,62.858101 
	C732.755066,70.087860 715.292664,106.192833 726.537842,140.345657 
	C733.727844,162.182495 749.691589,174.385666 772.470764,177.080688 
	C794.632629,179.702698 813.836182,173.595596 829.330444,156.327469 
	C826.520630,154.020676 824.003296,151.953979 821.458008,149.864349 
	C809.282166,163.129120 793.930847,167.065231 776.109314,166.635605 
M858.971313,167.456024 
	C856.986450,170.181976 855.001587,172.907913 852.619873,176.178940 
	C855.697754,176.178940 857.896667,175.916840 860.009033,176.232986 
	C864.536011,176.910446 867.343323,175.005951 869.787048,171.300201 
	C873.630737,165.471649 877.938293,159.948013 882.073425,154.312927 
	C888.925110,144.976074 895.795837,135.653275 902.924377,125.963264 
	C904.387939,127.839851 905.520081,129.218506 906.574097,130.654495 
	C916.912476,144.739532 927.208923,158.855530 937.613525,172.891357 
	C938.607483,174.232132 940.161072,175.843521 941.615662,176.022522 
	C945.264648,176.471558 949.005798,176.170898 953.567688,176.170898 
	C938.431641,156.073654 923.969116,136.870605 909.562073,117.741287 
	C923.227844,99.494347 936.554810,81.699791 950.445801,63.152142 
	C947.188904,63.152142 944.891602,63.404285 942.671021,63.099022 
	C938.216309,62.486629 935.358276,64.125717 932.929688,67.955666 
	C929.282654,73.706909 925.030334,79.074944 921.022278,84.596474 
	C915.107117,92.745392 909.180359,100.885971 902.986694,109.404030 
	C893.075562,95.845428 883.561829,82.842468 874.061829,69.829514 
	C868.843140,62.681068 865.064209,61.420258 855.972717,64.030594 
	C869.417847,81.918579 882.798889,99.721275 896.359131,117.762329 
	C883.993774,134.188522 871.690063,150.532928 858.971313,167.456024 
M362.033600,213.463104 
	C361.251404,216.852386 360.469208,220.241669 359.385559,224.937073 
	C357.830200,217.214157 356.635468,210.726334 355.133179,204.310486 
	C354.846924,203.087814 353.345551,202.149658 352.404816,201.080231 
	C352.003723,201.418472 351.602631,201.756699 351.201508,202.094940 
	C352.877869,210.216324 354.478302,218.355026 356.321442,226.438370 
	C356.566803,227.514389 358.043457,228.309647 358.949890,229.234924 
	C359.960571,228.224503 361.546295,227.376221 361.884674,226.176239 
	C363.549103,220.273758 364.882416,214.277924 366.656281,206.984253 
	C368.390594,213.945999 369.904816,219.680267 371.224304,225.459000 
	C371.934937,228.571350 373.154327,230.382492 376.792236,228.651596 
	C378.604309,219.747772 380.438171,210.736832 382.541443,200.402176 
	C376.495605,203.386124 378.083191,208.180771 377.024750,211.680618 
	C375.874237,215.485001 375.416473,219.498917 374.401428,224.739059 
	C372.506439,217.364655 371.025757,211.258194 369.317444,205.216110 
	C368.929169,203.842758 367.752258,202.692383 366.938324,201.439362 
	C365.988678,202.766739 364.731537,203.974945 364.160370,205.448975 
	C363.266357,207.756271 362.836090,210.243271 362.033600,213.463104 
M522.840149,202.824997 
	C521.354126,200.206696 520.130676,201.206711 519.212341,203.196686 
	C518.809692,204.069275 518.886841,205.154984 518.691956,206.133102 
	C517.598022,211.623840 516.487549,217.111282 515.382751,222.599838 
	C512.972595,216.639633 511.610352,210.825378 509.979095,205.087616 
	C509.594055,203.733231 508.303711,202.636215 507.429810,201.420792 
	C506.592377,202.664642 505.376617,203.800034 504.983459,205.171265 
	C503.346436,210.881165 501.957062,216.662048 500.476837,222.416901 
	C498.333832,216.355850 497.301483,210.364166 495.939880,204.448257 
	C495.648193,203.180817 494.163849,202.187881 493.228912,201.068481 
	C492.753418,201.403564 492.277924,201.738632 491.802429,202.073715 
	C493.474762,209.833115 495.058014,217.613785 496.899597,225.332825 
	C497.240540,226.762024 498.624023,227.942490 499.526367,229.237747 
	C500.655060,227.948578 502.373383,226.831070 502.807556,225.339691 
	C504.451294,219.693832 505.678711,213.926758 507.377350,206.900070 
	C509.180511,214.263062 510.520721,220.254974 512.196777,226.151398 
	C512.541260,227.363159 514.140991,228.218124 515.162109,229.237518 
	C516.107117,228.162888 517.616516,227.220627 517.904663,225.991959 
	C519.648010,218.558548 521.112488,211.059723 522.840149,202.824997 
M900.057556,214.746750 
	C900.057556,212.902435 900.057556,211.058121 900.057556,209.213806 
	C900.521729,209.159546 900.985901,209.105301 901.450073,209.051041 
	C903.743835,215.011475 906.037659,220.971893 908.331421,226.932312 
	C908.850464,226.881424 909.369446,226.830521 909.888489,226.779633 
	C911.982910,221.372177 914.077332,215.964737 916.171753,210.557297 
	C917.085876,215.968201 916.944092,221.205276 917.202332,226.422531 
	C917.255676,227.501373 918.797241,228.506546 919.652954,229.545670 
	C919.984131,229.221970 920.315308,228.898254 920.646484,228.574554 
	C920.646484,219.667908 920.646484,210.761246 920.646484,201.854599 
	C920.224487,201.484726 919.802490,201.114838 919.380493,200.744965 
	C918.046509,202.013046 916.130249,203.039185 915.484436,204.593246 
	C913.281677,209.894302 911.526123,215.381210 909.326172,221.566986 
	C908.421570,219.425858 907.742004,217.977661 907.190674,216.482193 
	C905.587769,212.134186 904.179199,207.705994 902.357178,203.453827 
	C901.938416,202.476517 900.220886,201.885361 898.983765,201.552200 
	C898.684875,201.471710 897.454041,203.117523 897.440735,203.981613 
	C897.320312,211.792786 897.332153,219.607315 897.454163,227.418549 
	C897.464966,228.111633 898.528564,228.788269 900.057556,230.608902 
	C900.057556,224.562881 900.057556,220.121323 900.057556,214.746750 
M589.805237,229.200470 
	C590.552307,228.119476 591.903809,227.061111 591.945251,225.953705 
	C592.162109,220.163040 592.046509,214.359924 592.046509,207.382904 
	C596.149109,214.560516 599.483887,220.666214 603.133972,226.577209 
	C603.976929,227.942276 605.899048,228.640915 608.241272,230.292725 
	C608.241272,220.479416 608.306641,212.336746 608.160217,204.197891 
	C608.141479,203.156601 607.020020,202.135132 606.409424,201.104492 
	C605.886597,201.298370 605.363708,201.492249 604.840820,201.686127 
	C604.840820,208.615219 604.840820,215.544296 604.840820,223.462723 
	C600.798767,216.404465 597.444519,210.299088 593.804688,204.368988 
	C592.915710,202.920685 591.090698,202.046921 589.040344,200.373993 
	C589.040344,210.902069 589.040344,219.933640 589.805237,229.200470 
M715.091431,208.621246 
	C715.091431,215.367950 715.091431,222.114670 715.091431,229.091553 
	C719.391907,229.091553 723.205383,229.347397 726.968445,229.021133 
	C730.895996,228.680603 733.900269,226.731903 734.602112,222.449280 
	C735.282227,218.299042 733.208801,215.860306 729.421753,214.588715 
	C734.562927,209.328735 734.213440,203.634232 728.400696,202.270844 
	C724.207397,201.287292 719.724731,201.536896 715.091431,201.217178 
	C715.091431,204.028870 715.091431,205.844849 715.091431,208.621246 
M809.949585,211.322723 
	C809.519470,211.899094 809.106812,212.959290 808.656433,212.975571 
	C804.927185,213.110275 801.190857,213.051819 797.233459,213.051819 
	C797.233459,209.748566 797.382629,207.087112 797.159668,204.457199 
	C797.071350,203.416382 796.155945,202.445694 795.617249,201.443069 
	C795.000488,202.367233 793.867065,203.281250 793.848694,204.217117 
	C793.702087,211.687775 793.702454,219.163864 793.853088,226.634369 
	C793.870605,227.504349 795.077820,228.350357 795.733521,229.207474 
	C796.233521,228.360382 797.119080,227.533524 797.164795,226.662582 
	C797.336182,223.394699 797.233459,220.112457 797.233459,216.543915 
	C801.693481,216.543915 805.614685,216.543915 809.905029,216.543915 
	C809.905029,220.580597 809.905029,224.677841 809.905029,228.775070 
	C810.369324,229.053787 810.833618,229.332520 811.297852,229.611237 
	C812.065247,228.596146 813.471313,227.597351 813.497681,226.563339 
	C813.688171,219.094681 813.688110,211.616653 813.497437,204.148010 
	C813.470947,203.111633 812.067383,202.110443 811.301331,201.092972 
	C810.853638,201.389908 810.405884,201.686844 809.958191,201.983780 
	C809.958191,204.783249 809.958191,207.582733 809.949585,211.322723 
M414.947296,215.497406 
	C414.947296,219.948242 414.947296,224.399094 414.947296,230.130768 
	C421.124634,226.904358 416.944763,221.405762 419.980103,216.979965 
	C421.641968,218.131912 423.685608,219.022415 424.950378,220.555466 
	C426.612549,222.570267 427.430847,225.275452 429.066467,227.320236 
	C429.953461,228.429153 431.783600,228.783676 433.188293,229.478485 
	C433.335907,229.097366 433.483521,228.716232 433.631134,228.335114 
	C431.598511,224.755859 429.565887,221.176605 427.510345,217.557037 
	C428.293427,217.047760 428.826630,216.647705 429.406097,216.332794 
	C433.315094,214.208328 434.340759,210.375336 432.792419,206.983658 
	C431.732849,204.662628 428.508209,202.596283 425.865417,201.916168 
	C422.509338,201.052475 418.762512,201.707169 414.947296,201.707169 
	C414.947296,206.215057 414.947296,210.360092 414.947296,215.497406 
M696.680420,202.538666 
	C691.995911,202.027954 687.311340,201.517242 682.312378,200.972260 
	C682.312378,210.861313 682.312378,219.755768 682.312378,229.028763 
	C683.322571,229.028763 685.053223,229.144608 685.072449,229.011887 
	C685.605713,225.340225 685.965149,221.643326 686.533325,216.239105 
	C689.072876,218.217087 691.128845,219.378769 692.572327,221.064789 
	C694.052551,222.793808 694.716125,225.211212 696.152954,226.991821 
	C697.121887,228.192749 698.812012,228.811844 700.179504,229.691193 
	C700.472046,229.319870 700.764648,228.948532 701.057190,228.577209 
	C698.964050,224.914093 696.870850,221.250977 694.798523,217.624344 
	C701.805786,212.928299 702.536926,208.230774 696.680420,202.538666 
M459.947296,224.275711 
	C460.028656,225.857071 460.110016,227.438446 460.199554,229.178604 
	C467.155121,229.138412 474.360504,230.726807 478.255127,223.300858 
	C481.212585,217.661835 481.344330,211.511169 477.564758,206.234344 
	C473.243347,200.201004 466.562195,201.411423 459.947296,201.495773 
	C459.947296,209.073975 459.947296,216.201324 459.947296,224.275711 
M298.412445,229.138519 
	C298.761444,224.926285 299.110443,220.714066 299.468903,216.387726 
	C303.517670,216.387726 307.495972,216.387726 312.038269,216.387726 
	C312.038269,220.721634 312.038269,224.943192 312.038269,229.164764 
	C312.525879,229.359970 313.013519,229.555176 313.501129,229.750381 
	C314.214661,228.709213 315.521240,227.682205 315.546539,226.624573 
	C315.725433,219.139999 315.730988,211.646866 315.539948,204.162903 
	C315.512878,203.102310 314.120880,202.076569 313.360626,201.034683 
	C312.877533,201.318741 312.394440,201.602798 311.911346,201.886856 
	C311.911346,205.478012 311.911346,209.069153 311.911346,212.788574 
	C307.446930,212.788574 303.404053,212.788574 298.956635,212.788574 
	C298.956635,208.905045 298.956635,205.311188 298.956635,201.717331 
	C298.418152,201.488846 297.879669,201.260361 297.341217,201.031876 
	C296.679718,202.310577 295.481415,203.574738 295.446289,204.870422 
	C295.257111,211.854889 295.254395,218.850159 295.457733,225.833832 
	C295.491364,226.989212 296.861908,228.105667 298.412445,229.138519 
M385.564423,218.784836 
	C386.545563,223.784927 388.661499,227.807831 394.054230,229.320786 
	C398.312439,230.515396 401.968475,229.476974 405.034241,226.523300 
	C409.610840,222.114029 410.411713,212.328186 406.842804,206.538956 
	C403.963013,201.867599 398.646179,199.904312 393.510193,201.615738 
	C387.633698,203.573959 384.782227,209.113373 385.347107,217.477554 
	C385.358276,217.642746 385.389923,217.806564 385.564423,218.784836 
M939.214111,229.270844 
	C939.880310,229.270782 940.593140,229.423981 941.203003,229.238571 
	C942.447266,228.860260 943.636108,228.299606 944.847778,227.814102 
	C943.554993,227.235031 942.295715,226.272141 940.962463,226.155563 
	C938.051880,225.901077 935.103699,226.076874 932.162354,226.076874 
	C932.162354,222.478165 932.162354,219.533554 932.162354,216.068146 
	C935.624207,216.068146 938.854797,216.068146 943.175537,216.068146 
	C939.896179,210.996689 935.249329,214.539612 932.274658,212.526779 
	C932.274658,209.976044 932.274658,207.416901 932.274658,204.645782 
	C935.780640,204.645782 938.944763,204.737854 942.095947,204.576691 
	C942.821960,204.539551 943.503479,203.634262 944.205505,203.128494 
	C943.589111,202.538330 942.988220,201.456726 942.353760,201.436615 
	C937.742371,201.290375 933.124207,201.358017 928.295776,201.358017 
	C928.295776,210.900513 928.295776,219.838516 928.295776,229.270660 
	C931.692627,229.270660 934.999512,229.270660 939.214111,229.270844 
M824.806274,201.346466 
	C822.627869,201.218735 820.961426,201.367065 821.020813,204.396210 
	C821.180298,212.524902 821.075256,220.658783 821.075256,229.266449 
	C826.044006,229.266449 830.675903,229.327591 835.303101,229.205490 
	C836.062866,229.185455 836.801331,228.359680 837.549683,227.906265 
	C836.778625,227.298187 836.036621,226.214569 835.231323,226.165314 
	C831.958313,225.965012 828.665833,226.082016 825.261780,226.082016 
	C825.261780,222.586121 825.261780,219.556656 825.261780,216.178619 
	C828.709656,216.178619 831.823975,216.178619 836.270752,216.178619 
	C833.026611,210.839111 828.031311,214.697571 825.172363,212.412476 
	C825.172363,209.981262 825.172363,207.550034 825.172363,204.651215 
	C828.526306,204.651215 831.649414,204.768356 834.753052,204.574387 
	C835.600525,204.521423 836.389526,203.533646 837.205383,202.974884 
	C836.372803,202.432571 835.567017,201.478912 834.702698,201.422562 
	C831.721191,201.228134 828.719238,201.346802 824.806274,201.346466 
M753.156738,216.228882 
	C755.121582,214.158600 754.510193,213.141663 751.822693,213.089478 
	C749.240967,213.039322 746.657471,213.078629 744.212219,213.078629 
	C744.212219,209.880157 744.212219,207.445847 744.212219,204.641068 
	C747.790466,204.641068 751.098450,204.734802 754.392029,204.559326 
	C755.025330,204.525574 755.602295,203.435089 756.205322,202.832138 
	C755.656799,202.343124 755.118103,201.443024 754.558289,201.429703 
	C749.806030,201.316650 745.049866,201.365067 740.368774,201.365067 
	C740.368774,211.085449 740.368774,219.996521 740.368774,229.268036 
	C745.136597,229.268036 749.615784,229.351685 754.086487,229.193619 
	C754.925903,229.163956 755.731201,228.168808 756.552246,227.619171 
	C755.683350,227.105591 754.836182,226.198227 753.941711,226.149048 
	C750.688965,225.970184 747.420288,226.078445 744.173035,226.078445 
	C744.173035,222.465424 744.173035,219.526962 744.173035,216.267654 
	C747.068787,216.267654 749.720276,216.267654 753.156738,216.228882 
M327.657684,212.959839 
	C327.352936,210.300476 327.048157,207.641129 326.701294,204.614319 
	C330.679413,204.614319 333.826538,204.706802 336.960297,204.543472 
	C337.665039,204.506744 338.323242,203.576614 339.002869,203.057739 
	C338.361908,202.503082 337.734894,201.487762 337.077667,201.467819 
	C332.471008,201.328064 327.858093,201.393799 323.102539,201.393799 
	C323.102539,210.918152 323.102539,219.867538 323.102539,229.248062 
	C327.868805,229.248062 332.497711,229.329681 337.118500,229.171906 
	C337.938660,229.143890 338.724762,228.119980 339.526611,227.555939 
	C338.634613,227.069366 337.762238,226.211609 336.847046,226.163116 
	C333.606049,225.991379 330.350403,226.096191 327.158264,226.096191 
	C327.158264,222.437103 327.158264,219.497498 327.158264,216.040405 
	C330.628296,216.040405 333.853912,216.040405 338.200226,216.040405 
	C335.146484,211.522263 331.427338,213.822678 327.657684,212.959839 
M674.421631,229.259598 
	C675.017883,228.674255 675.614197,228.088898 676.210449,227.503555 
	C675.495850,227.031235 674.797302,226.182220 674.063904,226.150955 
	C670.653748,226.005585 667.233887,226.086578 664.012207,226.086578 
	C664.012207,222.389587 664.012207,219.463959 664.012207,216.580231 
	C673.386353,215.731644 673.386353,215.731644 673.771118,212.975555 
	C670.457520,212.975555 667.204346,212.975555 664.078613,212.975555 
	C664.078613,209.916061 664.078613,207.374420 664.078613,204.630585 
	C667.668762,204.630585 670.830750,204.723541 673.979248,204.558838 
	C674.680664,204.522156 675.334839,203.579422 676.010803,203.053894 
	C675.370911,202.494995 674.745178,201.471802 674.088867,201.451767 
	C669.479797,201.311066 664.864380,201.377182 660.100098,201.377182 
	C660.100098,210.905991 660.100098,219.859344 660.100098,229.263138 
	C664.692444,229.263138 669.152283,229.263138 674.421631,229.259598 
M619.831909,229.263214 
	C623.158020,229.262955 626.489929,229.369125 629.806152,229.187531 
	C630.633179,229.142227 631.409363,228.168655 632.208862,227.621735 
	C631.368896,227.109238 630.550293,226.201248 629.685242,226.154602 
	C626.429138,225.979141 623.157837,226.084229 619.961609,226.084229 
	C619.961609,222.481720 619.961609,219.549454 619.961609,216.293701 
	C623.395325,216.293701 626.514648,216.293701 629.660706,216.293701 
	C629.460083,214.085129 629.460083,214.085129 620.021729,212.555252 
	C620.021729,210.019745 620.021729,207.484070 620.021729,204.634460 
	C623.535950,204.634460 626.680176,204.723175 629.812561,204.570053 
	C630.565491,204.533234 631.279114,203.693848 632.010864,203.223572 
	C631.262085,202.604019 630.532898,201.478180 629.761353,201.448456 
	C625.314270,201.277069 620.857239,201.364914 615.943665,201.364914 
	C615.943665,210.280777 615.870850,218.719879 616.072693,227.152405 
	C616.090088,227.878006 617.927490,228.560059 619.831909,229.263214 
M865.353821,221.763199 
	C865.481812,225.274216 863.060974,226.629562 860.286560,226.587692 
	C858.105896,226.554794 855.970825,225.160751 853.761047,224.577972 
	C852.862915,224.341095 851.820557,224.651138 850.843811,224.712341 
	C851.251526,225.615829 851.446472,227.073746 852.104065,227.326111 
	C854.833069,228.373367 857.699158,229.706619 860.519714,229.717819 
	C864.524841,229.733749 868.037903,227.863953 868.931946,223.403946 
	C869.823669,218.955490 867.567688,216.164246 863.582458,214.471527 
	C861.302551,213.503113 858.918518,212.627731 856.910583,211.235565 
	C855.913940,210.544556 855.044800,208.674286 855.244202,207.534592 
	C855.442322,206.402924 856.960266,204.826141 858.065674,204.676941 
	C860.067749,204.406677 862.191589,205.068497 864.268311,205.309143 
	C865.427185,205.443420 866.593445,205.513199 867.756409,205.612045 
	C864.686340,201.146408 860.594910,199.708572 856.432617,201.888351 
	C854.166565,203.075027 851.694519,206.040604 851.442139,208.428619 
	C850.977966,212.821701 854.915833,214.592789 858.500244,216.308273 
	C860.910706,217.461929 862.956116,219.378387 865.353821,221.763199 
M878.935364,205.424332 
	C876.323242,213.187714 873.711121,220.951111 871.099060,228.714508 
	C871.620605,229.035965 872.142151,229.357422 872.663696,229.678879 
	C873.702515,228.308426 874.841370,227.000778 875.752197,225.549942 
	C876.666626,224.093277 876.969666,221.701447 878.209900,221.100433 
	C882.538269,219.002869 887.148926,221.440048 888.913635,225.892090 
	C889.476318,227.311722 890.989746,228.354477 892.068115,229.569687 
	C892.519592,229.211349 892.971069,228.853027 893.422546,228.494690 
	C890.724670,220.503876 888.107666,212.483887 885.245300,204.552444 
	C884.794983,203.304459 883.233276,202.457565 882.185425,201.425217 
	C881.165344,202.510300 880.145203,203.595383 878.935364,205.424332 
M641.833801,213.584763 
	C638.081604,201.956726 638.081604,201.956726 634.481567,201.794861 
	C637.063477,209.993256 639.679749,217.966339 642.054626,226.010635 
	C642.972778,229.120468 644.545227,230.034424 647.600647,228.678589 
	C650.392456,219.830154 653.210144,210.899857 656.027771,201.969543 
	C655.529114,201.635406 655.030457,201.301270 654.531799,200.967133 
	C653.567688,202.161636 652.161499,203.211258 651.714539,204.575226 
	C649.561768,211.144485 647.667542,217.798523 645.335266,225.577728 
	C643.980164,221.027206 642.989197,217.699326 641.833801,213.584763 
M777.750000,229.196121 
	C780.927063,229.690872 780.237061,227.378296 780.244873,225.676239 
	C780.276245,218.881805 780.257812,212.087128 780.257812,204.896667 
	C782.742859,204.787338 784.883850,204.831512 786.972656,204.523041 
	C787.665833,204.420670 788.225098,203.411880 788.845642,202.817505 
	C788.270447,202.349564 787.703125,201.486511 787.118896,201.474976 
	C781.457458,201.363312 775.792053,201.338593 770.131348,201.459045 
	C769.461182,201.473297 768.812805,202.505463 768.154297,203.065750 
	C768.857178,203.584488 769.523010,204.476624 770.269958,204.550552 
	C772.347290,204.756210 774.458374,204.621964 777.083496,204.621964 
	C777.083496,213.250046 777.083496,221.054489 777.750000,229.196121 
M280.489990,201.361313 
	C278.000305,201.362030 275.493439,201.194092 273.029266,201.445267 
	C272.022766,201.547867 271.108765,202.558136 270.152679,203.155441 
	C271.047119,203.648102 271.904205,204.455521 272.843842,204.567062 
	C274.726379,204.790543 276.654083,204.633438 278.740265,204.633438 
	C278.740265,212.301666 278.647949,219.105179 278.824768,225.901718 
	C278.856842,227.134277 279.991028,228.338181 280.616394,229.555313 
	C281.180908,229.335495 281.745453,229.115677 282.309967,228.895844 
	C282.309967,221.004745 282.309967,213.113632 282.309967,204.633514 
	C284.516876,204.633514 286.326752,204.817703 288.069946,204.556702 
	C288.957092,204.423889 289.724335,203.490387 290.545776,202.918793 
	C289.670959,202.400513 288.832886,201.530640 287.913971,201.434692 
	C285.779449,201.211777 283.605896,201.362335 280.489990,201.361313 
M443.058899,211.537415 
	C443.058899,208.259369 443.058899,204.981323 443.058899,200.150055 
	C441.124420,201.847031 439.509003,202.597046 439.492279,203.381180 
	C439.310089,211.914978 439.378326,220.454102 439.378326,229.057709 
	C445.063324,229.057709 449.991180,229.057709 455.076782,229.057709 
	C455.076782,228.216583 455.152130,227.030701 455.065948,227.018845 
	C451.143250,226.479202 447.206421,226.042343 443.058899,225.569214 
	C443.058899,221.113892 443.058899,216.818497 443.058899,211.537415 
M539.242126,228.847672 
	C543.528870,228.983505 547.816345,229.208328 552.101868,229.176849 
	C552.917053,229.170868 553.724915,228.150818 554.536133,227.598648 
	C553.663208,227.095718 552.814026,226.216110 551.912903,226.159134 
	C548.984314,225.973953 546.036743,226.089874 542.635498,226.089874 
	C542.635498,218.674515 542.734436,211.754303 542.545959,204.841949 
	C542.511230,203.569595 541.311829,202.328995 540.649963,201.073730 
	C540.091187,201.295242 539.532349,201.516739 538.973511,201.738235 
	C538.973511,210.485168 538.973511,219.232086 539.242126,228.847672 
M572.009033,229.259216 
	C573.007996,228.754578 574.007019,228.249939 575.005981,227.745316 
	C574.040833,227.192856 573.105408,226.237701 572.104980,226.164017 
	C569.193481,225.949570 566.255920,226.087936 562.953735,226.087936 
	C562.953735,217.564728 562.953735,209.644287 562.953735,201.723846 
	C562.544800,201.491028 562.135803,201.258209 561.726868,201.025391 
	C560.940735,201.972946 559.493347,202.906067 559.472229,203.870331 
	C559.291382,212.150787 559.368408,220.436874 559.368408,229.259384 
	C563.539062,229.259384 567.325378,229.259384 572.009033,229.259216 
M531.173706,222.435959 
	C531.173645,216.649948 531.258606,210.861679 531.103638,205.079819 
	C531.071655,203.885696 530.146179,202.715500 529.632507,201.534256 
	C529.030518,202.626495 527.931824,203.707718 527.907288,204.812759 
	C527.749634,211.917786 527.766724,219.029114 527.896240,226.135284 
	C527.914551,227.141098 528.857483,228.130066 529.372437,229.126846 
	C529.972229,228.215683 530.779968,227.373108 531.109802,226.372925 
	C531.404846,225.478119 531.173035,224.409561 531.173706,222.435959 
z"/>
<path fill="#353535" opacity="1.000000" stroke="none" 
	d="
M27.000446,192.975571 
	C59.789413,140.026443 92.394859,87.389832 125.005478,34.756420 
	C129.184845,28.010944 131.104355,28.039452 135.347137,34.888783 
	C170.845306,92.195183 206.342117,149.502426 241.831970,206.813980 
	C242.706390,208.226044 244.199844,209.720032 244.141495,211.123306 
	C244.072952,212.771790 242.956741,214.768875 241.656509,215.839417 
	C240.753922,216.582535 238.773422,216.032852 237.274506,216.032913 
	C165.804581,216.035629 94.334625,216.047836 22.864775,215.974945 
	C20.710447,215.972748 18.557032,215.077103 16.403193,214.597992 
	C16.978870,212.161850 17.082232,209.472260 18.225956,207.340958 
	C20.817911,202.510895 23.922424,197.955917 27.000446,192.975571 
M142.497894,83.027824 
	C140.223343,79.347076 137.952652,75.663933 135.673401,71.986099 
	C131.354355,65.016846 129.396469,65.030334 125.032501,72.050446 
	C101.486610,109.927551 77.920326,147.792038 54.456760,185.720062 
	C53.338562,187.527573 51.980389,190.802505 52.762543,191.794327 
	C53.961613,193.314789 56.923943,194.065613 59.140648,194.071228 
	C106.611374,194.191849 154.082535,194.186096 201.553360,194.085861 
	C203.666733,194.081406 206.849243,193.541382 207.594269,192.185272 
	C208.369186,190.774780 207.271896,187.772186 206.165726,185.975189 
	C185.141846,151.822006 163.995468,117.744217 142.497894,83.027824 
z"/>
<path fill="#363636" opacity="1.000000" stroke="none" 
	d="
M292.088715,160.127869 
	C290.294281,164.282257 288.352356,167.983932 287.015594,171.892548 
	C285.855804,175.283707 284.024353,176.653259 280.441498,176.233231 
	C277.822327,175.926208 275.138184,176.173141 271.854828,176.173141 
	C272.479767,174.480667 272.881805,173.151810 273.446808,171.896317 
	C296.203918,121.329422 319.003357,70.781532 341.675049,20.176405 
	C342.997955,17.223572 344.451202,16.288771 347.773865,15.972384 
	C354.519104,15.330093 357.645081,17.721842 360.457977,24.086096 
	C382.270813,73.438065 404.602509,122.560722 426.762878,171.759171 
	C427.297119,172.945160 427.707611,174.186890 428.467896,176.161011 
	C424.245270,176.161011 420.490753,176.417999 416.810822,176.007126 
	C415.681519,175.881042 414.395355,174.091858 413.794739,172.782669 
	C408.812927,161.923965 404.057343,150.960693 398.991394,140.142349 
	C398.345428,138.762833 396.311859,137.144608 394.912781,137.136810 
	C364.109070,136.965393 333.304199,137.005859 302.311249,137.005859 
	C298.920258,144.641571 295.562164,152.203293 292.088715,160.127869 
M352.635681,33.903828 
	C351.869904,32.326736 351.104126,30.749645 349.891876,28.253052 
	C335.427307,61.050735 321.344818,92.982124 307.119415,125.237503 
	C335.966095,125.237503 364.144226,125.237503 392.874542,125.237503 
	C379.428925,94.733223 366.177002,64.668495 352.635681,33.903828 
z"/>
<path fill="#363636" opacity="1.000000" stroke="none" 
	d="
M582.134277,135.793106 
	C579.526672,121.190834 579.583984,107.125580 585.401001,93.695419 
	C594.491333,72.707504 615.243713,60.468697 638.280701,61.562580 
	C654.298523,62.323166 668.300049,67.065285 678.726868,79.884178 
	C680.381348,81.918282 681.761353,84.175720 683.721802,86.978386 
	C683.721802,63.191544 683.721802,40.039307 683.721802,16.523495 
	C687.559082,16.523495 690.947266,16.523495 694.675781,16.523495 
	C694.675781,69.471062 694.675781,122.500824 694.675781,175.852478 
	C691.362366,175.852478 687.967468,175.852478 684.026611,175.852478 
	C684.026611,168.244934 684.026611,160.559021 684.026611,151.759644 
	C668.780701,174.119415 648.233521,181.511383 623.534729,176.685562 
	C601.306030,172.342346 587.730591,158.132523 582.134277,135.793106 
M653.359314,74.926445 
	C651.438416,74.405807 649.546021,73.711510 647.592224,73.391716 
	C630.369629,70.572617 614.681091,73.380394 602.447632,86.877815 
	C594.347839,95.814453 591.713501,106.839455 591.572327,118.696220 
	C591.362427,136.317764 596.460205,151.638611 612.460327,160.623901 
	C628.392883,169.571243 645.307739,170.104523 661.456543,160.733307 
	C678.152649,151.044464 684.512695,135.377060 683.547546,116.844124 
	C682.517944,97.073242 673.271057,82.449806 653.359314,74.926445 
z"/>
<path fill="#373737" opacity="1.000000" stroke="none" 
	d="
M447.063843,176.167252 
	C445.993378,175.209732 444.899628,174.260010 444.898254,173.308685 
	C444.822998,121.519768 444.838470,69.730721 444.863007,17.941690 
	C444.863220,17.486040 445.110962,17.030506 445.299896,16.379320 
	C448.613892,16.379320 451.893127,16.379320 455.798584,16.379320 
	C455.798584,39.457787 455.798584,62.594891 455.798584,85.731995 
	C463.370514,74.536560 473.161133,66.975845 485.912659,63.797142 
	C523.565613,54.410992 558.117004,75.642593 559.087280,117.299301 
	C559.581116,138.497803 553.422546,156.762711 534.977356,169.105331 
	C511.438873,184.856171 477.785004,179.795609 459.988159,157.988297 
	C458.764923,156.489395 457.812775,154.769226 455.984924,152.027557 
	C455.984924,160.715378 455.984924,168.200333 455.984924,176.174301 
	C452.780853,176.174301 450.165588,176.174301 447.063843,176.167252 
M540.441101,91.158134 
	C529.161133,73.374474 504.573212,68.828293 486.545776,74.808868 
	C469.379028,80.503929 457.377441,95.784767 456.087799,114.348030 
	C454.670288,134.751862 461.211426,151.633331 479.888580,161.822235 
	C499.436920,172.486404 533.353516,168.502808 544.165161,140.883911 
	C550.694885,124.203445 549.792908,107.614159 540.441101,91.158134 
z"/>
<path fill="#383838" opacity="1.000000" stroke="none" 
	d="
M776.546509,166.686554 
	C793.930847,167.065231 809.282166,163.129120 821.458008,149.864349 
	C824.003296,151.953979 826.520630,154.020676 829.330444,156.327469 
	C813.836182,173.595596 794.632629,179.702698 772.470764,177.080688 
	C749.691589,174.385666 733.727844,162.182495 726.537842,140.345657 
	C715.292664,106.192833 732.755066,70.087860 768.420898,62.858101 
	C792.186523,58.040600 819.122986,65.458069 830.919189,89.112976 
	C836.512512,100.329140 837.383606,112.300354 836.480286,124.936172 
	C802.541870,124.936172 768.960388,124.936172 735.371155,124.936172 
	C735.903992,145.170135 750.265625,163.856842 776.546509,166.686554 
M739.590454,97.312523 
	C737.850769,103.047241 736.111023,108.781967 734.295776,114.765656 
	C765.677368,114.765656 795.830872,114.765656 825.977112,114.765656 
	C826.142883,96.342407 817.682678,82.281616 802.601074,76.061104 
	C780.828430,67.080780 752.692017,71.602798 739.590454,97.312523 
z"/>
<path fill="#383838" opacity="1.000000" stroke="none" 
	d="
M859.178833,167.166687 
	C871.690063,150.532928 883.993774,134.188522 896.359131,117.762329 
	C882.798889,99.721275 869.417847,81.918579 855.972717,64.030594 
	C865.064209,61.420258 868.843140,62.681068 874.061829,69.829514 
	C883.561829,82.842468 893.075562,95.845428 902.986694,109.404030 
	C909.180359,100.885971 915.107117,92.745392 921.022278,84.596474 
	C925.030334,79.074944 929.282654,73.706909 932.929688,67.955666 
	C935.358276,64.125717 938.216309,62.486629 942.671021,63.099022 
	C944.891602,63.404285 947.188904,63.152142 950.445801,63.152142 
	C936.554810,81.699791 923.227844,99.494347 909.562073,117.741287 
	C923.969116,136.870605 938.431641,156.073654 953.567688,176.170898 
	C949.005798,176.170898 945.264648,176.471558 941.615662,176.022522 
	C940.161072,175.843521 938.607483,174.232132 937.613525,172.891357 
	C927.208923,158.855530 916.912476,144.739532 906.574097,130.654495 
	C905.520081,129.218506 904.387939,127.839851 902.924377,125.963264 
	C895.795837,135.653275 888.925110,144.976074 882.073425,154.312927 
	C877.938293,159.948013 873.630737,165.471649 869.787048,171.300201 
	C867.343323,175.005951 864.536011,176.910446 860.009033,176.232986 
	C857.896667,175.916840 855.697754,176.178940 852.619873,176.178940 
	C855.001587,172.907913 856.986450,170.181976 859.178833,167.166687 
z"/>
<path fill="#464646" opacity="1.000000" stroke="none" 
	d="
M362.121521,213.058624 
	C362.836090,210.243271 363.266357,207.756271 364.160370,205.448975 
	C364.731537,203.974945 365.988678,202.766739 366.938354,201.439362 
	C367.752258,202.692383 368.929169,203.842758 369.317444,205.216110 
	C371.025757,211.258194 372.506439,217.364655 374.401428,224.739059 
	C375.416473,219.498917 375.874237,215.485001 377.024750,211.680618 
	C378.083191,208.180771 376.495605,203.386124 382.541443,200.402176 
	C380.438171,210.736832 378.604309,219.747772 376.792236,228.651596 
	C373.154327,230.382492 371.934937,228.571350 371.224304,225.459000 
	C369.904816,219.680267 368.390594,213.945999 366.656281,206.984253 
	C364.882416,214.277924 363.549103,220.273758 361.884674,226.176239 
	C361.546295,227.376221 359.960571,228.224503 358.949890,229.234924 
	C358.043457,228.309647 356.566803,227.514389 356.321442,226.438370 
	C354.478302,218.355026 352.877869,210.216324 351.201508,202.094940 
	C351.602631,201.756699 352.003723,201.418472 352.404816,201.080231 
	C353.345551,202.149658 354.846924,203.087814 355.133179,204.310486 
	C356.635468,210.726334 357.830200,217.214157 359.385559,224.937073 
	C360.469208,220.241669 361.251404,216.852386 362.121521,213.058624 
z"/>
<path fill="#474747" opacity="1.000000" stroke="none" 
	d="
M522.755127,203.203888 
	C521.112488,211.059723 519.648010,218.558548 517.904663,225.991959 
	C517.616516,227.220627 516.107117,228.162888 515.162109,229.237534 
	C514.140991,228.218124 512.541260,227.363159 512.196777,226.151398 
	C510.520721,220.254974 509.180511,214.263062 507.377350,206.900070 
	C505.678711,213.926758 504.451294,219.693832 502.807556,225.339691 
	C502.373383,226.831070 500.655060,227.948578 499.526367,229.237762 
	C498.624023,227.942490 497.240540,226.762024 496.899597,225.332825 
	C495.058014,217.613785 493.474762,209.833115 491.802429,202.073715 
	C492.277924,201.738632 492.753418,201.403564 493.228912,201.068481 
	C494.163849,202.187881 495.648193,203.180817 495.939880,204.448257 
	C497.301483,210.364166 498.333832,216.355850 500.476837,222.416901 
	C501.957062,216.662048 503.346436,210.881165 504.983459,205.171265 
	C505.376617,203.800034 506.592377,202.664642 507.429810,201.420792 
	C508.303711,202.636215 509.594055,203.733231 509.979095,205.087616 
	C511.610352,210.825378 512.972595,216.639633 515.382751,222.599838 
	C516.487549,217.111282 517.598022,211.623840 518.691956,206.133102 
	C518.886841,205.154984 518.809692,204.069275 519.212341,203.196686 
	C520.130676,201.206711 521.354126,200.206696 522.755127,203.203888 
z"/>
<path fill="#4B4B4B" opacity="1.000000" stroke="none" 
	d="
M900.057556,215.213257 
	C900.057556,220.121323 900.057556,224.562881 900.057556,230.608902 
	C898.528564,228.788269 897.464966,228.111633 897.454163,227.418549 
	C897.332153,219.607315 897.320312,211.792786 897.440735,203.981613 
	C897.454041,203.117523 898.684875,201.471710 898.983765,201.552200 
	C900.220886,201.885361 901.938416,202.476517 902.357178,203.453827 
	C904.179199,207.705994 905.587769,212.134186 907.190674,216.482193 
	C907.742004,217.977661 908.421570,219.425858 909.326172,221.566986 
	C911.526123,215.381210 913.281677,209.894302 915.484436,204.593246 
	C916.130249,203.039185 918.046509,202.013046 919.380493,200.744965 
	C919.802490,201.114838 920.224487,201.484726 920.646484,201.854599 
	C920.646484,210.761246 920.646484,219.667908 920.646484,228.574554 
	C920.315308,228.898254 919.984131,229.221970 919.652954,229.545670 
	C918.797241,228.506546 917.255676,227.501373 917.202332,226.422531 
	C916.944092,221.205276 917.085876,215.968201 916.171753,210.557297 
	C914.077332,215.964737 911.982910,221.372177 909.888489,226.779633 
	C909.369446,226.830521 908.850464,226.881424 908.331421,226.932312 
	C906.037659,220.971893 903.743835,215.011475 901.450073,209.051041 
	C900.985901,209.105301 900.521729,209.159546 900.057556,209.213806 
	C900.057556,211.058121 900.057556,212.902435 900.057556,215.213257 
z"/>
<path fill="#474747" opacity="1.000000" stroke="none" 
	d="
M589.422791,229.082825 
	C589.040344,219.933640 589.040344,210.902069 589.040344,200.373993 
	C591.090698,202.046921 592.915710,202.920685 593.804688,204.368988 
	C597.444519,210.299088 600.798767,216.404465 604.840820,223.462723 
	C604.840820,215.544296 604.840820,208.615219 604.840820,201.686127 
	C605.363708,201.492249 605.886597,201.298370 606.409424,201.104492 
	C607.020020,202.135132 608.141479,203.156601 608.160217,204.197891 
	C608.306641,212.336746 608.241272,220.479416 608.241272,230.292725 
	C605.899048,228.640915 603.976929,227.942276 603.133972,226.577209 
	C599.483887,220.666214 596.149109,214.560516 592.046509,207.382904 
	C592.046509,214.359924 592.162109,220.163040 591.945251,225.953705 
	C591.903809,227.061111 590.552307,228.119476 589.422791,229.082825 
z"/>
<path fill="#494949" opacity="1.000000" stroke="none" 
	d="
M715.091431,208.141037 
	C715.091431,205.844849 715.091431,204.028870 715.091431,201.217178 
	C719.724731,201.536896 724.207397,201.287292 728.400696,202.270844 
	C734.213440,203.634232 734.562927,209.328735 729.421753,214.588715 
	C733.208801,215.860306 735.282227,218.299042 734.602112,222.449280 
	C733.900269,226.731903 730.895996,228.680603 726.968445,229.021133 
	C723.205383,229.347397 719.391907,229.091553 715.091431,229.091553 
	C715.091431,222.114670 715.091431,215.367950 715.091431,208.141037 
M718.899353,219.643829 
	C718.899353,221.751373 718.899353,223.858932 718.899353,226.477295 
	C722.005371,226.275955 724.895447,226.761612 727.074341,225.736191 
	C728.843689,224.903473 731.183289,221.704605 730.731445,220.540680 
	C729.992065,218.636261 727.308899,216.632751 725.222778,216.357056 
	C723.325439,216.106354 719.215271,213.424377 718.899353,219.643829 
M718.914551,211.366394 
	C721.419617,214.915527 724.737915,213.213608 727.420227,212.108231 
	C728.489075,211.667770 729.329651,207.485001 728.974976,207.282608 
	C726.124939,205.656326 722.964417,204.574234 718.901062,202.919403 
	C718.901062,206.578049 718.901062,208.512192 718.914551,211.366394 
z"/>
<path fill="#454545" opacity="1.000000" stroke="none" 
	d="
M809.953857,210.852463 
	C809.958191,207.582733 809.958191,204.783249 809.958191,201.983780 
	C810.405884,201.686844 810.853638,201.389908 811.301331,201.092972 
	C812.067383,202.110443 813.470947,203.111633 813.497437,204.148010 
	C813.688110,211.616653 813.688171,219.094681 813.497681,226.563339 
	C813.471313,227.597351 812.065247,228.596146 811.297852,229.611237 
	C810.833618,229.332520 810.369324,229.053787 809.905029,228.775070 
	C809.905029,224.677841 809.905029,220.580597 809.905029,216.543915 
	C805.614685,216.543915 801.693481,216.543915 797.233459,216.543915 
	C797.233459,220.112457 797.336182,223.394699 797.164795,226.662582 
	C797.119080,227.533524 796.233521,228.360382 795.733521,229.207489 
	C795.077820,228.350357 793.870605,227.504349 793.853088,226.634369 
	C793.702454,219.163864 793.702087,211.687775 793.848694,204.217117 
	C793.867065,203.281250 795.000488,202.367233 795.617249,201.443054 
	C796.155945,202.445694 797.071350,203.416382 797.159668,204.457199 
	C797.382629,207.087112 797.233459,209.748566 797.233459,213.051819 
	C801.190857,213.051819 804.927185,213.110275 808.656433,212.975571 
	C809.106812,212.959290 809.519470,211.899094 809.953857,210.852463 
z"/>
<path fill="#494949" opacity="1.000000" stroke="none" 
	d="
M414.947296,215.001266 
	C414.947296,210.360092 414.947296,206.215057 414.947296,201.707169 
	C418.762512,201.707169 422.509338,201.052475 425.865417,201.916168 
	C428.508209,202.596283 431.732849,204.662628 432.792419,206.983658 
	C434.340759,210.375336 433.315094,214.208328 429.406097,216.332794 
	C428.826630,216.647705 428.293427,217.047760 427.510345,217.557037 
	C429.565887,221.176605 431.598511,224.755859 433.631134,228.335114 
	C433.483521,228.716232 433.335907,229.097366 433.188293,229.478485 
	C431.783600,228.783676 429.953461,228.429153 429.066467,227.320236 
	C427.430847,225.275452 426.612549,222.570267 424.950378,220.555466 
	C423.685608,219.022415 421.641968,218.131912 419.980103,216.979965 
	C416.944763,221.405762 421.124634,226.904358 414.947296,230.130768 
	C414.947296,224.399094 414.947296,219.948242 414.947296,215.001266 
M418.632904,206.492676 
	C418.632904,209.216034 418.632904,211.939392 418.632904,216.596924 
	C423.147949,214.466751 426.396912,213.298279 429.135925,211.395691 
	C429.856842,210.894897 429.446259,206.842361 428.791840,206.614624 
	C425.830780,205.584183 422.598236,205.326111 419.454742,204.847275 
	C419.267059,204.818695 419.003357,205.289261 418.632904,206.492676 
z"/>
<path fill="#4B4B4B" opacity="1.000000" stroke="none" 
	d="
M697.029602,202.722168 
	C702.536926,208.230774 701.805786,212.928299 694.798523,217.624344 
	C696.870850,221.250977 698.964050,224.914093 701.057190,228.577209 
	C700.764648,228.948532 700.472046,229.319870 700.179504,229.691193 
	C698.812012,228.811844 697.121887,228.192749 696.152954,226.991821 
	C694.716125,225.211212 694.052551,222.793808 692.572327,221.064789 
	C691.128845,219.378769 689.072876,218.217087 686.533325,216.239105 
	C685.965149,221.643326 685.605713,225.340225 685.072449,229.011887 
	C685.053223,229.144608 683.322571,229.028763 682.312378,229.028763 
	C682.312378,219.755768 682.312378,210.861313 682.312378,200.972260 
	C687.311340,201.517242 691.995911,202.027954 697.029602,202.722168 
M685.907837,207.516006 
	C685.907837,209.794388 685.907837,212.072769 685.907837,214.742767 
	C690.274719,214.615463 694.689758,215.786667 696.573914,211.045334 
	C697.145081,209.607910 696.014465,206.098251 694.843994,205.642670 
	C692.032227,204.548248 688.474243,202.686981 685.907837,207.516006 
z"/>
<path fill="#494949" opacity="1.000000" stroke="none" 
	d="
M459.947296,223.802200 
	C459.947296,216.201324 459.947296,209.073975 459.947296,201.495773 
	C466.562195,201.411423 473.243347,200.201004 477.564758,206.234344 
	C481.344330,211.511169 481.212585,217.661835 478.255127,223.300858 
	C474.360504,230.726807 467.155121,229.138412 460.199554,229.178604 
	C460.110016,227.438446 460.028656,225.857071 459.947296,223.802200 
M474.981018,208.858292 
	C472.299774,204.457062 468.389618,204.040314 463.984497,205.116028 
	C463.984497,212.334305 463.984497,219.217789 463.984497,226.074585 
	C472.482361,226.399261 475.645966,224.061188 476.120605,216.922974 
	C476.280396,214.519745 475.602295,212.060776 474.981018,208.858292 
z"/>
<path fill="#4D4D4D" opacity="1.000000" stroke="none" 
	d="
M298.013550,229.189316 
	C296.861908,228.105667 295.491364,226.989212 295.457733,225.833832 
	C295.254395,218.850159 295.257111,211.854889 295.446289,204.870422 
	C295.481415,203.574738 296.679718,202.310577 297.341217,201.031876 
	C297.879669,201.260361 298.418152,201.488846 298.956635,201.717331 
	C298.956635,205.311188 298.956635,208.905045 298.956635,212.788574 
	C303.404053,212.788574 307.446930,212.788574 311.911346,212.788574 
	C311.911346,209.069153 311.911346,205.478012 311.911346,201.886856 
	C312.394440,201.602798 312.877533,201.318741 313.360626,201.034683 
	C314.120880,202.076569 315.512878,203.102310 315.539948,204.162903 
	C315.730988,211.646866 315.725433,219.139999 315.546539,226.624573 
	C315.521240,227.682205 314.214661,228.709213 313.501129,229.750381 
	C313.013519,229.555176 312.525879,229.359970 312.038269,229.164764 
	C312.038269,224.943192 312.038269,220.721634 312.038269,216.387726 
	C307.495972,216.387726 303.517670,216.387726 299.468903,216.387726 
	C299.110443,220.714066 298.761444,224.926285 298.013550,229.189316 
z"/>
<path fill="#434343" opacity="1.000000" stroke="none" 
	d="
M385.488220,218.377930 
	C385.389923,217.806564 385.358276,217.642746 385.347107,217.477554 
	C384.782227,209.113373 387.633698,203.573959 393.510193,201.615738 
	C398.646179,199.904312 403.963013,201.867599 406.842804,206.538956 
	C410.411713,212.328186 409.610840,222.114029 405.034241,226.523300 
	C401.968475,229.476974 398.312439,230.515396 394.054230,229.320786 
	C388.661499,227.807831 386.545563,223.784927 385.488220,218.377930 
M389.035919,213.792160 
	C389.466919,216.546478 389.202972,219.716141 390.529297,221.935349 
	C391.792389,224.048752 394.683990,226.338120 396.917511,226.398224 
	C399.138763,226.457977 402.921722,224.209686 403.391388,222.320129 
	C404.450439,218.059631 404.615784,213.231766 403.659393,208.967941 
	C403.212616,206.976166 399.292450,204.495895 396.993042,204.542252 
	C394.673950,204.589005 392.253998,207.321014 390.203552,209.226593 
	C389.381317,209.990723 389.427185,211.688934 389.035919,213.792160 
z"/>
<path fill="#4F4F4F" opacity="1.000000" stroke="none" 
	d="
M938.760254,229.270752 
	C934.999512,229.270660 931.692627,229.270660 928.295776,229.270660 
	C928.295776,219.838516 928.295776,210.900513 928.295776,201.358017 
	C933.124207,201.358017 937.742371,201.290375 942.353760,201.436615 
	C942.988220,201.456726 943.589111,202.538330 944.205505,203.128494 
	C943.503479,203.634262 942.821960,204.539551 942.095947,204.576691 
	C938.944763,204.737854 935.780640,204.645782 932.274658,204.645782 
	C932.274658,207.416901 932.274658,209.976044 932.274658,212.526779 
	C935.249329,214.539612 939.896179,210.996689 943.175537,216.068146 
	C938.854797,216.068146 935.624207,216.068146 932.162354,216.068146 
	C932.162354,219.533554 932.162354,222.478165 932.162354,226.076874 
	C935.103699,226.076874 938.051880,225.901077 940.962463,226.155563 
	C942.295715,226.272141 943.554993,227.235031 944.847778,227.814087 
	C943.636108,228.299606 942.447266,228.860260 941.203003,229.238571 
	C940.593140,229.423981 939.880310,229.270782 938.760254,229.270752 
z"/>
<path fill="#4F4F4F" opacity="1.000000" stroke="none" 
	d="
M825.265686,201.346344 
	C828.719238,201.346802 831.721191,201.228134 834.702698,201.422562 
	C835.567017,201.478912 836.372803,202.432571 837.205383,202.974884 
	C836.389526,203.533646 835.600525,204.521423 834.753052,204.574387 
	C831.649414,204.768356 828.526306,204.651215 825.172363,204.651215 
	C825.172363,207.550034 825.172363,209.981262 825.177490,212.414032 
	C828.031311,214.697571 833.026611,210.839111 836.270752,216.178619 
	C831.823975,216.178619 828.709656,216.178619 825.261780,216.178619 
	C825.261780,219.556656 825.261780,222.586121 825.261780,226.082016 
	C828.665833,226.082016 831.958313,225.965012 835.231323,226.165314 
	C836.036621,226.214569 836.778625,227.298187 837.549683,227.906281 
	C836.801331,228.359680 836.062866,229.185455 835.303101,229.205490 
	C830.675903,229.327591 826.044006,229.266449 821.075256,229.266449 
	C821.075256,220.658783 821.180298,212.524902 821.020813,204.396210 
	C820.961426,201.367065 822.627869,201.218735 825.265686,201.346344 
z"/>
<path fill="#4F4F4F" opacity="1.000000" stroke="none" 
	d="
M752.764282,216.248260 
	C749.720276,216.267654 747.068787,216.267654 744.173035,216.267654 
	C744.173035,219.526962 744.173035,222.465424 744.173035,226.078445 
	C747.420288,226.078445 750.688965,225.970184 753.941711,226.149048 
	C754.836182,226.198227 755.683350,227.105591 756.552246,227.619171 
	C755.731201,228.168808 754.925903,229.163956 754.086487,229.193619 
	C749.615784,229.351685 745.136597,229.268036 740.368774,229.268036 
	C740.368774,219.996521 740.368774,211.085449 740.368774,201.365067 
	C745.049866,201.365067 749.806030,201.316650 754.558289,201.429703 
	C755.118103,201.443024 755.656799,202.343124 756.205322,202.832123 
	C755.602295,203.435089 755.025330,204.525574 754.392029,204.559326 
	C751.098450,204.734802 747.790466,204.641068 744.212219,204.641068 
	C744.212219,207.445847 744.212219,209.880157 744.212219,213.078629 
	C746.657471,213.078629 749.240967,213.039322 751.822693,213.089478 
	C754.510193,213.141663 755.121582,214.158600 752.764282,216.248260 
z"/>
<path fill="#494949" opacity="1.000000" stroke="none" 
	d="
M328.123413,213.017654 
	C331.427338,213.822678 335.146484,211.522263 338.200226,216.040405 
	C333.853912,216.040405 330.628296,216.040405 327.158264,216.040405 
	C327.158264,219.497498 327.158264,222.437103 327.158264,226.096191 
	C330.350403,226.096191 333.606049,225.991379 336.847046,226.163116 
	C337.762238,226.211609 338.634613,227.069366 339.526611,227.555939 
	C338.724762,228.119980 337.938660,229.143890 337.118500,229.171906 
	C332.497711,229.329681 327.868805,229.248062 323.102539,229.248062 
	C323.102539,219.867538 323.102539,210.918152 323.102539,201.393799 
	C327.858093,201.393799 332.471008,201.328064 337.077667,201.467819 
	C337.734894,201.487762 338.361908,202.503082 339.002869,203.057739 
	C338.323242,203.576614 337.665039,204.506744 336.960297,204.543472 
	C333.826538,204.706802 330.679413,204.614319 326.701294,204.614319 
	C327.048157,207.641129 327.352936,210.300476 328.123413,213.017654 
z"/>
<path fill="#4D4D4D" opacity="1.000000" stroke="none" 
	d="
M674.016846,229.261368 
	C669.152283,229.263138 664.692444,229.263138 660.100098,229.263138 
	C660.100098,219.859344 660.100098,210.905991 660.100098,201.377182 
	C664.864380,201.377182 669.479797,201.311066 674.088867,201.451767 
	C674.745178,201.471802 675.370911,202.494995 676.010803,203.053879 
	C675.334839,203.579422 674.680664,204.522156 673.979248,204.558838 
	C670.830750,204.723541 667.668762,204.630585 664.078613,204.630585 
	C664.078613,207.374420 664.078613,209.916061 664.078613,212.975555 
	C667.204346,212.975555 670.457520,212.975555 673.771118,212.975555 
	C673.386353,215.731644 673.386353,215.731644 664.012207,216.580231 
	C664.012207,219.463959 664.012207,222.389587 664.012207,226.086578 
	C667.233887,226.086578 670.653748,226.005585 674.063904,226.150955 
	C674.797302,226.182220 675.495850,227.031235 676.210449,227.503555 
	C675.614197,228.088898 675.017883,228.674255 674.016846,229.261368 
z"/>
<path fill="#4D4D4D" opacity="1.000000" stroke="none" 
	d="
M619.375610,229.262787 
	C617.927490,228.560059 616.090088,227.878006 616.072693,227.152405 
	C615.870850,218.719879 615.943665,210.280777 615.943665,201.364914 
	C620.857239,201.364914 625.314270,201.277069 629.761353,201.448456 
	C630.532898,201.478180 631.262085,202.604019 632.010864,203.223557 
	C631.279114,203.693848 630.565491,204.533234 629.812561,204.570053 
	C626.680176,204.723175 623.535950,204.634460 620.021729,204.634460 
	C620.021729,207.484070 620.021729,210.019745 620.021729,212.555252 
	C629.460083,214.085129 629.460083,214.085129 629.660706,216.293701 
	C626.514648,216.293701 623.395325,216.293701 619.961609,216.293701 
	C619.961609,219.549454 619.961609,222.481720 619.961609,226.084229 
	C623.157837,226.084229 626.429138,225.979141 629.685242,226.154602 
	C630.550293,226.201248 631.368896,227.109238 632.208862,227.621735 
	C631.409363,228.168655 630.633179,229.142227 629.806152,229.187531 
	C626.489929,229.369125 623.158020,229.262955 619.375610,229.262787 
z"/>
<path fill="#454545" opacity="1.000000" stroke="none" 
	d="
M865.259338,221.358383 
	C862.956116,219.378387 860.910706,217.461929 858.500244,216.308273 
	C854.915833,214.592789 850.977966,212.821701 851.442139,208.428619 
	C851.694519,206.040604 854.166565,203.075027 856.432617,201.888351 
	C860.594910,199.708572 864.686340,201.146408 867.756409,205.612045 
	C866.593445,205.513199 865.427185,205.443420 864.268311,205.309143 
	C862.191589,205.068497 860.067749,204.406677 858.065674,204.676941 
	C856.960266,204.826141 855.442322,206.402924 855.244202,207.534592 
	C855.044800,208.674286 855.913940,210.544556 856.910583,211.235565 
	C858.918518,212.627731 861.302551,213.503113 863.582458,214.471527 
	C867.567688,216.164246 869.823669,218.955490 868.931946,223.403946 
	C868.037903,227.863953 864.524841,229.733749 860.519714,229.717819 
	C857.699158,229.706619 854.833069,228.373367 852.104065,227.326111 
	C851.446472,227.073746 851.251526,225.615829 850.843811,224.712341 
	C851.820557,224.651138 852.862915,224.341095 853.761047,224.577972 
	C855.970825,225.160751 858.105896,226.554794 860.286560,226.587692 
	C863.060974,226.629562 865.481812,225.274216 865.259338,221.358383 
z"/>
<path fill="#434343" opacity="1.000000" stroke="none" 
	d="
M879.030273,205.052399 
	C880.145203,203.595383 881.165344,202.510300 882.185425,201.425217 
	C883.233276,202.457565 884.794983,203.304459 885.245300,204.552444 
	C888.107666,212.483887 890.724670,220.503876 893.422546,228.494690 
	C892.971069,228.853027 892.519592,229.211349 892.068115,229.569687 
	C890.989746,228.354477 889.476318,227.311722 888.913635,225.892090 
	C887.148926,221.440048 882.538269,219.002869 878.209900,221.100433 
	C876.969666,221.701447 876.666626,224.093277 875.752197,225.549942 
	C874.841370,227.000778 873.702515,228.308426 872.663696,229.678879 
	C872.142151,229.357422 871.620605,229.035965 871.099060,228.714508 
	C873.711121,220.951111 876.323242,213.187714 879.030273,205.052399 
M881.750488,217.977081 
	C883.141663,217.884628 884.532837,217.792175 886.244568,217.678421 
	C884.925537,213.421829 883.750427,209.629608 882.206726,204.647980 
	C880.678589,209.776093 879.504883,213.714798 878.234863,217.976593 
	C879.596680,217.976593 880.256653,217.976593 881.750488,217.977081 
z"/>
<path fill="#454545" opacity="1.000000" stroke="none" 
	d="
M641.916016,213.978119 
	C642.989197,217.699326 643.980164,221.027206 645.335266,225.577728 
	C647.667542,217.798523 649.561768,211.144485 651.714539,204.575226 
	C652.161499,203.211258 653.567688,202.161636 654.531799,200.967133 
	C655.030457,201.301270 655.529114,201.635406 656.027771,201.969543 
	C653.210144,210.899857 650.392456,219.830154 647.600647,228.678589 
	C644.545227,230.034424 642.972778,229.120468 642.054626,226.010635 
	C639.679749,217.966339 637.063477,209.993256 634.481567,201.794861 
	C638.081604,201.956726 638.081604,201.956726 641.916016,213.978119 
z"/>
<path fill="#4B4B4B" opacity="1.000000" stroke="none" 
	d="
M777.416748,229.027527 
	C777.083496,221.054489 777.083496,213.250046 777.083496,204.621964 
	C774.458374,204.621964 772.347290,204.756210 770.269958,204.550552 
	C769.523010,204.476624 768.857178,203.584488 768.154297,203.065750 
	C768.812805,202.505463 769.461182,201.473297 770.131348,201.459045 
	C775.792053,201.338593 781.457458,201.363312 787.118896,201.474976 
	C787.703125,201.486511 788.270447,202.349564 788.845581,202.817490 
	C788.225098,203.411880 787.665833,204.420670 786.972656,204.523041 
	C784.883850,204.831512 782.742859,204.787338 780.257812,204.896667 
	C780.257812,212.087128 780.276245,218.881805 780.244873,225.676239 
	C780.237061,227.378296 780.927063,229.690872 777.416748,229.027527 
z"/>
<path fill="#4C4C4C" opacity="1.000000" stroke="none" 
	d="
M280.969086,201.361420 
	C283.605896,201.362335 285.779449,201.211777 287.913971,201.434692 
	C288.832886,201.530640 289.670959,202.400513 290.545776,202.918793 
	C289.724335,203.490387 288.957092,204.423889 288.069946,204.556702 
	C286.326752,204.817703 284.516876,204.633514 282.309967,204.633514 
	C282.309967,213.113632 282.309967,221.004745 282.309967,228.895844 
	C281.745453,229.115677 281.180908,229.335495 280.616394,229.555313 
	C279.991028,228.338181 278.856842,227.134277 278.824768,225.901718 
	C278.647949,219.105179 278.740265,212.301666 278.740265,204.633438 
	C276.654083,204.633438 274.726379,204.790543 272.843842,204.567062 
	C271.904205,204.455521 271.047119,203.648102 270.152679,203.155457 
	C271.108765,202.558136 272.022766,201.547867 273.029266,201.445267 
	C275.493439,201.194092 278.000305,201.362030 280.969086,201.361420 
z"/>
<path fill="#4C4C4C" opacity="1.000000" stroke="none" 
	d="
M443.058899,212.030258 
	C443.058899,216.818497 443.058899,221.113892 443.058899,225.569214 
	C447.206421,226.042343 451.143250,226.479202 455.065948,227.018845 
	C455.152130,227.030701 455.076782,228.216583 455.076782,229.057709 
	C449.991180,229.057709 445.063324,229.057709 439.378326,229.057709 
	C439.378326,220.454102 439.310089,211.914978 439.492279,203.381180 
	C439.509003,202.597046 441.124420,201.847031 443.058899,200.150055 
	C443.058899,204.981323 443.058899,208.259369 443.058899,212.030258 
z"/>
<path fill="#4B4B4B" opacity="1.000000" stroke="none" 
	d="
M539.107788,228.413345 
	C538.973511,219.232086 538.973511,210.485168 538.973511,201.738235 
	C539.532349,201.516739 540.091187,201.295242 540.649963,201.073730 
	C541.311829,202.328995 542.511230,203.569595 542.545959,204.841949 
	C542.734436,211.754303 542.635498,218.674515 542.635498,226.089874 
	C546.036743,226.089874 548.984314,225.973953 551.912903,226.159134 
	C552.814026,226.216110 553.663208,227.095718 554.536133,227.598648 
	C553.724915,228.150818 552.917053,229.170868 552.101868,229.176849 
	C547.816345,229.208328 543.528870,228.983505 539.107788,228.413345 
z"/>
<path fill="#4C4C4C" opacity="1.000000" stroke="none" 
	d="
M571.560364,229.259308 
	C567.325378,229.259384 563.539062,229.259384 559.368408,229.259384 
	C559.368408,220.436874 559.291382,212.150787 559.472229,203.870331 
	C559.493347,202.906067 560.940735,201.972946 561.726868,201.025391 
	C562.135803,201.258209 562.544800,201.491028 562.953735,201.723846 
	C562.953735,209.644287 562.953735,217.564728 562.953735,226.087936 
	C566.255920,226.087936 569.193481,225.949570 572.104980,226.164017 
	C573.105408,226.237701 574.040833,227.192856 575.005981,227.745316 
	C574.007019,228.249939 573.007996,228.754578 571.560364,229.259308 
z"/>
<path fill="#363636" opacity="1.000000" stroke="none" 
	d="
M531.173706,222.926819 
	C531.173035,224.409561 531.404846,225.478119 531.109802,226.372925 
	C530.779968,227.373108 529.972229,228.215683 529.372437,229.126831 
	C528.857483,228.130066 527.914551,227.141098 527.896240,226.135284 
	C527.766724,219.029114 527.749634,211.917786 527.907288,204.812759 
	C527.931824,203.707718 529.030518,202.626495 529.632507,201.534271 
	C530.146179,202.715500 531.071655,203.885696 531.103638,205.079819 
	C531.258606,210.861679 531.173645,216.649948 531.173706,222.926819 
z"/>
<path fill="#FDFDFE" opacity="1.000000" stroke="none" 
	d="
M142.686218,83.339302 
	C163.995468,117.744217 185.141846,151.822006 206.165726,185.975189 
	C207.271896,187.772186 208.369186,190.774780 207.594269,192.185272 
	C206.849243,193.541382 203.666733,194.081406 201.553360,194.085861 
	C154.082535,194.186096 106.611374,194.191849 59.140648,194.071228 
	C56.923943,194.065613 53.961613,193.314789 52.762543,191.794327 
	C51.980389,190.802505 53.338562,187.527573 54.456760,185.720062 
	C77.920326,147.792038 101.486610,109.927551 125.032501,72.050446 
	C129.396469,65.030334 131.354355,65.016846 135.673401,71.986099 
	C137.952652,75.663933 140.223343,79.347076 142.686218,83.339302 
M120.441544,123.931190 
	C107.656853,144.414886 94.872169,164.898575 81.702980,185.998337 
	C89.668495,185.998337 96.499870,186.142670 103.316116,185.885773 
	C104.815376,185.829269 106.853912,184.721054 107.643082,183.467117 
	C121.473335,161.492004 135.164902,139.429398 148.806793,117.336533 
	C149.508774,116.199684 150.202469,114.240509 149.701187,113.310074 
	C146.364441,107.116692 142.701004,101.099319 138.831345,94.491241 
	C132.468643,104.693611 126.658257,114.010384 120.441544,123.931190 
M169.554749,145.895966 
	C168.505310,144.475372 167.455887,143.054794 165.927948,140.986450 
	C156.200684,156.130966 146.849503,170.689987 137.135498,185.813858 
	C138.976974,185.898697 140.078690,186.005402 141.178818,185.990906 
	C147.642792,185.905701 155.211411,187.832458 160.252640,185.102081 
	C165.085068,182.484818 166.722824,174.534256 170.782623,169.800720 
	C177.941437,161.453873 177.875366,154.003387 169.554749,145.895966 
z"/>
<path fill="#FCFCFC" opacity="1.000000" stroke="none" 
	d="
M352.780396,34.253799 
	C366.177002,64.668495 379.428925,94.733223 392.874542,125.237503 
	C364.144226,125.237503 335.966095,125.237503 307.119415,125.237503 
	C321.344818,92.982124 335.427307,61.050735 349.891876,28.253052 
	C351.104126,30.749645 351.869904,32.326736 352.780396,34.253799 
z"/>
<path fill="#FEFEFE" opacity="1.000000" stroke="none" 
	d="
M653.739990,75.034843 
	C673.271057,82.449806 682.517944,97.073242 683.547546,116.844124 
	C684.512695,135.377060 678.152649,151.044464 661.456543,160.733307 
	C645.307739,170.104523 628.392883,169.571243 612.460327,160.623901 
	C596.460205,151.638611 591.362427,136.317764 591.572327,118.696220 
	C591.713501,106.839455 594.347839,95.814453 602.447632,86.877815 
	C614.681091,73.380394 630.369629,70.572617 647.592224,73.391716 
	C649.546021,73.711510 651.438416,74.405807 653.739990,75.034843 
z"/>
<path fill="#FEFEFE" opacity="1.000000" stroke="none" 
	d="
M540.638184,91.467941 
	C549.792908,107.614159 550.694885,124.203445 544.165161,140.883911 
	C533.353516,168.502808 499.436920,172.486404 479.888580,161.822235 
	C461.211426,151.633331 454.670288,134.751862 456.087799,114.348030 
	C457.377441,95.784767 469.379028,80.503929 486.545776,74.808868 
	C504.573212,68.828293 529.161133,73.374474 540.638184,91.467941 
z"/>
<path fill="#FEFEFE" opacity="1.000000" stroke="none" 
	d="
M739.738831,96.965393 
	C752.692017,71.602798 780.828430,67.080780 802.601074,76.061104 
	C817.682678,82.281616 826.142883,96.342407 825.977112,114.765656 
	C795.830872,114.765656 765.677368,114.765656 734.295776,114.765656 
	C736.111023,108.781967 737.850769,103.047241 739.738831,96.965393 
z"/>
<path fill="#FBFBFB" opacity="1.000000" stroke="none" 
	d="
M718.900146,219.170135 
	C719.215271,213.424377 723.325439,216.106354 725.222778,216.357056 
	C727.308899,216.632751 729.992065,218.636261 730.731445,220.540680 
	C731.183289,221.704605 728.843689,224.903473 727.074341,225.736191 
	C724.895447,226.761612 722.005371,226.275955 718.899353,226.477295 
	C718.899353,223.858932 718.899353,221.751373 718.900146,219.170135 
z"/>
<path fill="#FBFBFB" opacity="1.000000" stroke="none" 
	d="
M718.907837,210.906372 
	C718.901062,208.512192 718.901062,206.578049 718.901062,202.919403 
	C722.964417,204.574234 726.124939,205.656326 728.974976,207.282608 
	C729.329651,207.485001 728.489075,211.667770 727.420227,212.108231 
	C724.737915,213.213608 721.419617,214.915527 718.907837,210.906372 
z"/>
<path fill="#F8F8F8" opacity="1.000000" stroke="none" 
	d="
M418.703979,206.010132 
	C419.003357,205.289261 419.267059,204.818695 419.454742,204.847275 
	C422.598236,205.326111 425.830780,205.584183 428.791840,206.614624 
	C429.446259,206.842361 429.856842,210.894897 429.135925,211.395691 
	C426.396912,213.298279 423.147949,214.466751 418.632904,216.596924 
	C418.632904,211.939392 418.632904,209.216034 418.703979,206.010132 
z"/>
<path fill="#FBFBFB" opacity="1.000000" stroke="none" 
	d="
M685.914429,207.042679 
	C688.474243,202.686981 692.032227,204.548248 694.843994,205.642670 
	C696.014465,206.098251 697.145081,209.607910 696.573914,211.045334 
	C694.689758,215.786667 690.274719,214.615463 685.907837,214.742767 
	C685.907837,212.072769 685.907837,209.794388 685.914429,207.042679 
z"/>
<path fill="#FDFDFE" opacity="1.000000" stroke="none" 
	d="
M475.144104,209.242798 
	C475.602295,212.060776 476.280396,214.519745 476.120605,216.922974 
	C475.645966,224.061188 472.482361,226.399261 463.984497,226.074585 
	C463.984497,219.217789 463.984497,212.334305 463.984497,205.116028 
	C468.389618,204.040314 472.299774,204.457062 475.144104,209.242798 
z"/>
<path fill="#FBFBFB" opacity="1.000000" stroke="none" 
	d="
M389.056946,213.377075 
	C389.427185,211.688934 389.381317,209.990723 390.203552,209.226593 
	C392.253998,207.321014 394.673950,204.589005 396.993042,204.542252 
	C399.292450,204.495895 403.212616,206.976166 403.659393,208.967941 
	C404.615784,213.231766 404.450439,218.059631 403.391388,222.320129 
	C402.921722,224.209686 399.138763,226.457977 396.917511,226.398224 
	C394.683990,226.338120 391.792389,224.048752 390.529297,221.935349 
	C389.202972,219.716141 389.466919,216.546478 389.056946,213.377075 
z"/>
<path fill="#F8F8F8" opacity="1.000000" stroke="none" 
	d="
M881.333496,217.976837 
	C880.256653,217.976593 879.596680,217.976593 878.234863,217.976593 
	C879.504883,213.714798 880.678589,209.776093 882.206726,204.647980 
	C883.750427,209.629608 884.925537,213.421829 886.244568,217.678421 
	C884.532837,217.792175 883.141663,217.884628 881.333496,217.976837 
z"/>
<path fill="#4297D4" opacity="1.000000" stroke="none" 
	d="
M120.644707,123.629166 
	C126.658257,114.010384 132.468643,104.693611 138.831345,94.491241 
	C142.701004,101.099319 146.364441,107.116692 149.701187,113.310074 
	C150.202469,114.240509 149.508774,116.199684 148.806793,117.336533 
	C135.164902,139.429398 121.473335,161.492004 107.643082,183.467117 
	C106.853912,184.721054 104.815376,185.829269 103.316116,185.885773 
	C96.499870,186.142670 89.668495,185.998337 81.702980,185.998337 
	C94.872169,164.898575 107.656853,144.414886 120.644707,123.629166 
z"/>
<path fill="#4297D4" opacity="1.000000" stroke="none" 
	d="
M169.768921,146.194305 
	C177.875366,154.003387 177.941437,161.453873 170.782623,169.800720 
	C166.722824,174.534256 165.085068,182.484818 160.252640,185.102081 
	C155.211411,187.832458 147.642792,185.905701 141.178818,185.990906 
	C140.078690,186.005402 138.976974,185.898697 137.135498,185.813858 
	C146.849503,170.689987 156.200684,156.130966 165.927948,140.986450 
	C167.455887,143.054794 168.505310,144.475372 169.768921,146.194305 
z"/>
</svg>